<svg width="10" height="10" viewBox="0 0 10 10" fill="none" xmlns="http://www.w3.org/2000/svg">
<path d="M5.375 3.05536C4.125 3.05536 3.12891 4.07098 3.12891 5.30145C3.12891 6.55145 4.125 7.54755 5.375 7.54755C6.60547 7.54755 7.62109 6.55145 7.62109 5.30145C7.62109 4.07098 6.60547 3.05536 5.375 3.05536ZM5.375 6.7663C4.57422 6.7663 3.91016 6.12177 3.91016 5.30145C3.91016 4.50067 4.55469 3.85614 5.375 3.85614C6.17578 3.85614 6.82031 4.50067 6.82031 5.30145C6.82031 6.12177 6.17578 6.7663 5.375 6.7663ZM8.22656 2.97723C8.22656 3.2702 7.99219 3.50458 7.69922 3.50458C7.40625 3.50458 7.17188 3.2702 7.17188 2.97723C7.17188 2.68427 7.40625 2.44989 7.69922 2.44989C7.99219 2.44989 8.22656 2.68427 8.22656 2.97723ZM9.71094 3.50458C9.67188 2.80145 9.51562 2.17645 9.00781 1.66864C8.5 1.16083 7.875 1.00458 7.17188 0.965515C6.44922 0.926453 4.28125 0.926453 3.55859 0.965515C2.85547 1.00458 2.25 1.16083 1.72266 1.66864C1.21484 2.17645 1.05859 2.80145 1.01953 3.50458C0.980469 4.22723 0.980469 6.3952 1.01953 7.11786C1.05859 7.82098 1.21484 8.42645 1.72266 8.9538C2.25 9.46161 2.85547 9.61786 3.55859 9.65692C4.28125 9.69598 6.44922 9.69598 7.17188 9.65692C7.875 9.61786 8.5 9.46161 9.00781 8.9538C9.51562 8.42645 9.67188 7.82098 9.71094 7.11786C9.75 6.3952 9.75 4.22723 9.71094 3.50458ZM8.77344 7.87958C8.63672 8.2702 8.32422 8.56317 7.95312 8.71942C7.36719 8.9538 6 8.8952 5.375 8.8952C4.73047 8.8952 3.36328 8.9538 2.79688 8.71942C2.40625 8.56317 2.11328 8.2702 1.95703 7.87958C1.72266 7.31317 1.78125 5.94598 1.78125 5.30145C1.78125 4.67645 1.72266 3.30927 1.95703 2.72333C2.11328 2.35223 2.40625 2.05927 2.79688 1.90302C3.36328 1.66864 4.73047 1.72723 5.375 1.72723C6 1.72723 7.36719 1.66864 7.95312 1.90302C8.32422 2.03973 8.61719 2.35223 8.77344 2.72333C9.00781 3.30927 8.94922 4.67645 8.94922 5.30145C8.94922 5.94598 9.00781 7.31317 8.77344 7.87958Z" fill="#00112C" fill-opacity="0.25"/>
</svg>
