<svg width="60" height="17" viewBox="0 0 60 17" fill="none" xmlns="http://www.w3.org/2000/svg">
<rect width="15.1072" height="15.1072" rx="4.86407" fill="#00112C"/>
<path fill-rule="evenodd" clip-rule="evenodd" d="M4.2685 4.38975C4.54628 3.78524 4.804 3.25768 4.84117 3.21749C4.87839 3.1773 4.94967 3.14575 4.99958 3.14747C5.0495 3.14914 5.29509 3.24786 5.54531 3.36681C5.96183 3.56481 6.00134 3.59376 6.01313 3.70987C6.02023 3.7796 5.98665 3.92061 5.93856 4.02322C5.85619 4.19886 5.85545 4.21298 5.92569 4.26462C5.98024 4.30477 6.14064 4.31597 6.52358 4.3064C7.02126 4.29395 7.05627 4.28727 7.23851 4.1692C7.37005 4.08397 7.4844 4.04473 7.60342 4.04398C7.73042 4.04319 7.8221 4.07636 7.9465 4.16811C8.11613 4.29324 8.11687 4.29333 8.79141 4.30615C9.32301 4.31622 9.48428 4.30632 9.55001 4.25957C9.59589 4.2269 9.75187 3.96732 9.89664 3.68271C10.1213 3.24101 10.1757 3.16376 10.2681 3.15499C10.3299 3.14914 10.5717 3.23901 10.8302 3.36389C11.0797 3.48442 11.3027 3.61411 11.3256 3.65204C11.3569 3.7041 11.2401 4.00036 10.8502 4.85736C10.5028 5.62063 10.301 6.01449 10.2353 6.05719C10.1438 6.11665 10.1089 6.10775 9.69373 5.91928C9.44962 5.80844 9.21581 5.69045 9.17409 5.65711C9.13236 5.62373 9.09826 5.55475 9.09826 5.50378C9.09826 5.4528 9.13826 5.32391 9.18717 5.21733C9.23605 5.11071 9.26417 5.00492 9.24961 4.98219C9.2344 4.9585 8.98743 4.94092 8.66913 4.94092C8.16106 4.94092 8.10829 4.94818 8.03259 5.02882C7.95438 5.11209 7.94893 5.22615 7.92839 7.19704C7.90785 9.16792 7.90239 9.28198 7.82418 9.36525C7.77791 9.41455 7.68861 9.45316 7.62084 9.45316C7.5451 9.45316 7.47482 9.41852 7.43257 9.36028C7.37382 9.27943 7.36511 9.01221 7.36511 7.29083C7.36511 5.68092 7.35372 5.28798 7.3038 5.17271C7.27005 5.09487 7.20428 5.01148 7.15757 4.98737C7.10926 4.96243 6.75977 4.94154 6.34606 4.93878C5.63846 4.93415 5.61689 4.93657 5.52208 5.03145C5.46857 5.08506 5.33061 5.33331 5.21553 5.58316C5.07302 5.89254 4.97545 6.05093 4.9095 6.07988C4.82891 6.11531 4.72718 6.08126 4.3016 5.87637C3.99041 5.72655 3.78521 5.60263 3.77698 5.55959C3.76952 5.52074 3.99072 4.99431 4.2685 4.38975ZM4.20212 10.5782C4.20212 9.36751 4.20498 9.32506 4.29224 9.24091C4.3756 9.16053 4.42279 9.15506 4.92215 9.1678C5.34357 9.17858 5.47095 9.19533 5.50297 9.24426C5.52555 9.27872 5.54427 9.49544 5.54466 9.72585C5.54514 10.0366 5.56273 10.1688 5.61277 10.2377C5.67109 10.318 5.71962 10.3305 5.9714 10.3305C6.16487 10.3305 6.29494 10.3524 6.35889 10.3956C6.42986 10.4435 6.45521 10.5027 6.45521 10.6202C6.45521 10.7176 6.42735 10.8022 6.38372 10.8371C6.33766 10.8739 6.1971 10.8948 5.9893 10.8957C5.72243 10.8968 5.65588 10.9109 5.60584 10.9769C5.56437 11.0316 5.54531 11.1782 5.54531 11.4427C5.54531 11.7379 5.52928 11.8441 5.47724 11.8943C5.42269 11.9469 5.30267 11.96 4.87371 11.96C4.44476 11.96 4.32474 11.9469 4.27019 11.8943C4.21135 11.8375 4.20212 11.6593 4.20212 10.5782ZM9.74819 9.76889C9.74819 9.32218 9.75452 9.2865 9.84451 9.22575C9.91761 9.17636 10.0565 9.1607 10.4211 9.1607C10.7674 9.1607 10.925 9.17724 10.9856 9.21994C11.0651 9.27597 11.0703 9.34658 11.0809 10.5047C11.0894 11.4384 11.0789 11.755 11.0364 11.8346C10.9842 11.9326 10.9568 11.9399 10.5919 11.9517C10.3781 11.9587 10.1396 11.9531 10.062 11.9394C9.98126 11.925 9.89183 11.8716 9.85305 11.8145C9.81466 11.758 9.77441 11.5762 9.76024 11.3954C9.7452 11.2041 9.71045 11.0522 9.67358 11.0166C9.63411 10.9785 9.51907 10.9572 9.35299 10.9572C9.20832 10.9572 9.03886 10.9298 8.96918 10.895C8.90055 10.8608 8.83201 10.795 8.81676 10.7488C8.80155 10.7026 8.80155 10.627 8.81676 10.5808C8.83201 10.5345 8.90294 10.4676 8.97447 10.4319C9.07001 10.3843 9.16568 10.3744 9.33527 10.3948C9.53462 10.4189 9.57839 10.4107 9.65711 10.3348C9.73905 10.2558 9.74819 10.199 9.74819 9.76889ZM6.49854 9.78669C6.49854 9.73216 6.55092 9.63477 6.61496 9.57035C6.679 9.50588 6.76038 9.45316 6.79582 9.45316C6.83126 9.45316 7.00102 9.58476 7.17308 9.74562C7.39683 9.95481 7.5178 10.0381 7.59809 10.0381C7.68037 10.0381 7.78839 9.95995 8.00248 9.74562C8.16319 9.58476 8.32719 9.45316 8.367 9.45316C8.40678 9.45316 8.49985 9.51963 8.57381 9.60085C8.64777 9.68207 8.7083 9.766 8.7083 9.7874C8.7083 9.80879 8.64565 9.89744 8.56909 9.98439C8.49248 10.0714 8.34625 10.231 8.24412 10.3392C8.14195 10.4474 8.05837 10.5611 8.05837 10.592C8.05837 10.6228 8.21436 10.8119 8.405 11.0122C8.59565 11.2125 8.75163 11.41 8.75163 11.4513C8.75163 11.4926 8.69084 11.5863 8.61649 11.6596C8.54218 11.7329 8.45379 11.7928 8.42008 11.7928C8.38637 11.7928 8.20075 11.633 8.00759 11.4377C7.81443 11.2424 7.63132 11.0826 7.60069 11.0826C7.57001 11.0826 7.3941 11.2424 7.20969 11.4377C7.02529 11.633 6.84686 11.7928 6.81315 11.7928C6.77944 11.7928 6.69486 11.7379 6.62519 11.6707C6.55552 11.6035 6.49884 11.5048 6.49919 11.4514C6.49958 11.3896 6.61804 11.228 6.82416 11.0081C7.00254 10.8178 7.14847 10.6324 7.14847 10.596C7.14847 10.5596 7.00223 10.3849 6.8235 10.2078C6.60417 9.99053 6.49854 9.85362 6.49854 9.78669Z" fill="white"/>
<path d="M20.1236 6.54128C20.0633 6.54128 20.009 6.51996 19.9607 6.47731C19.9185 6.42858 19.8974 6.37375 19.8974 6.31282V0.372962C19.8974 0.305948 19.9185 0.251118 19.9607 0.208473C20.009 0.165828 20.0633 0.144505 20.1236 0.144505H21.3176C21.3839 0.144505 21.4382 0.165828 21.4804 0.208473C21.5226 0.251118 21.5437 0.305948 21.5437 0.372962V5.16141H24.2845C24.3509 5.16141 24.4051 5.18577 24.4473 5.23451C24.4896 5.27716 24.5107 5.33199 24.5107 5.399V6.31282C24.5107 6.37375 24.4896 6.42858 24.4473 6.47731C24.4051 6.51996 24.3509 6.54128 24.2845 6.54128H20.1236Z" fill="#00112C"/>
<path d="M34.6128 6.63266C33.7505 6.63266 33.0751 6.42248 32.5866 6.00212C32.1042 5.57567 31.8479 4.96036 31.8177 4.1562C31.8117 3.99171 31.8087 3.72365 31.8087 3.35203C31.8087 2.97432 31.8117 2.70017 31.8177 2.52959C31.8479 1.73761 32.1102 1.12839 32.6047 0.701939C33.0992 0.269395 33.7686 0.0531229 34.6128 0.0531229C35.1435 0.0531229 35.6199 0.144505 36.042 0.327271C36.4641 0.503943 36.7958 0.759815 37.037 1.09488C37.2843 1.42386 37.4109 1.81071 37.4169 2.25544V2.27372C37.4169 2.32246 37.3958 2.3651 37.3536 2.40165C37.3174 2.43211 37.2752 2.44734 37.227 2.44734H36.0058C35.9274 2.44734 35.8671 2.43211 35.8249 2.40165C35.7827 2.3651 35.7465 2.30113 35.7164 2.20975C35.6319 1.89905 35.4993 1.68278 35.3184 1.56093C35.1374 1.433 34.8992 1.36903 34.6038 1.36903C33.8922 1.36903 33.5243 1.77111 33.5002 2.57528C33.4942 2.73977 33.4912 2.99259 33.4912 3.33376C33.4912 3.67492 33.4942 3.93383 33.5002 4.11051C33.5243 4.91467 33.8922 5.31676 34.6038 5.31676C34.8992 5.31676 35.1405 5.25279 35.3274 5.12485C35.5143 4.99082 35.644 4.77455 35.7164 4.47604C35.7405 4.38465 35.7737 4.32373 35.8159 4.29327C35.8581 4.25672 35.9214 4.23844 36.0058 4.23844H37.227C37.2812 4.23844 37.3265 4.25672 37.3627 4.29327C37.4049 4.32982 37.423 4.37552 37.4169 4.43034C37.4109 4.87507 37.2843 5.26497 37.037 5.60004C36.7958 5.92902 36.4641 6.18489 36.042 6.36765C35.6199 6.54433 35.1435 6.63266 34.6128 6.63266Z" fill="#00112C"/>
<path d="M38.7751 6.54128C38.7148 6.54128 38.6605 6.51996 38.6123 6.47731C38.5701 6.42858 38.549 6.37375 38.549 6.31282V0.372962C38.549 0.305948 38.5701 0.251118 38.6123 0.208473C38.6605 0.165828 38.7148 0.144505 38.7751 0.144505H39.9149C39.9812 0.144505 40.0355 0.165828 40.0777 0.208473C40.1199 0.251118 40.141 0.305948 40.141 0.372962V2.40165L41.8144 0.318132C41.8868 0.202381 42.0044 0.144505 42.1672 0.144505H43.4698C43.524 0.144505 43.5693 0.165828 43.6054 0.208473C43.6416 0.245026 43.6597 0.287671 43.6597 0.336409C43.6597 0.379054 43.6507 0.415607 43.6326 0.446067L41.4616 3.20582L43.7954 6.23972C43.8195 6.26409 43.8316 6.30064 43.8316 6.34938C43.8316 6.39812 43.8135 6.44381 43.7773 6.48645C43.7411 6.523 43.6959 6.54128 43.6416 6.54128H42.2938C42.1491 6.54128 42.0285 6.48036 41.932 6.35852L40.141 4.10137V6.31282C40.141 6.37984 40.1199 6.43467 40.0777 6.47731C40.0355 6.51996 39.9812 6.54128 39.9149 6.54128H38.7751Z" fill="#00112C"/>
<path d="M44.954 6.54128C44.8937 6.54128 44.8394 6.51996 44.7912 6.47731C44.749 6.42858 44.7279 6.37375 44.7279 6.31282V0.372962C44.7279 0.305948 44.749 0.251118 44.7912 0.208473C44.8394 0.165828 44.8937 0.144505 44.954 0.144505H49.1783C49.2446 0.144505 49.2989 0.165828 49.3411 0.208473C49.3833 0.251118 49.4044 0.305948 49.4044 0.372962V1.23196C49.4044 1.29288 49.3833 1.34771 49.3411 1.39645C49.2989 1.43909 49.2446 1.46041 49.1783 1.46041H46.2928V2.69408H48.9793C49.0456 2.69408 49.0999 2.71845 49.1421 2.76718C49.1843 2.80983 49.2054 2.86466 49.2054 2.93167V3.7267C49.2054 3.78762 49.1843 3.84245 49.1421 3.89119C49.0999 3.93383 49.0456 3.95516 48.9793 3.95516H46.2928V5.22537H49.2507C49.317 5.22537 49.3713 5.2467 49.4135 5.28934C49.4557 5.33199 49.4768 5.38682 49.4768 5.45383V6.31282C49.4768 6.37375 49.4557 6.42858 49.4135 6.47731C49.3713 6.51996 49.317 6.54128 49.2507 6.54128H44.954Z" fill="#00112C"/>
<path d="M50.9121 6.54128C50.8518 6.54128 50.7975 6.51996 50.7493 6.47731C50.707 6.42858 50.6859 6.37375 50.6859 6.31282V0.372962C50.6859 0.305948 50.707 0.251118 50.7493 0.208473C50.7975 0.165828 50.8518 0.144505 50.9121 0.144505H53.2639C54.1504 0.144505 54.8379 0.357731 55.3263 0.784183C55.8148 1.21063 56.0711 1.82899 56.0952 2.63925C56.1012 2.81592 56.1042 3.05047 56.1042 3.34289C56.1042 3.63532 56.1012 3.86682 56.0952 4.0374C56.065 4.88421 55.8148 5.51475 55.3444 5.92902C54.8801 6.33719 54.2017 6.54128 53.3092 6.54128H50.9121ZM53.2639 5.22537C53.6619 5.22537 53.9544 5.13094 54.1413 4.94209C54.3283 4.74714 54.4278 4.43948 54.4399 4.01912C54.4519 3.84245 54.4579 3.61399 54.4579 3.33376C54.4579 3.05352 54.4519 2.82811 54.4399 2.65752C54.4278 2.24935 54.3192 1.94779 54.1142 1.75284C53.9152 1.55789 53.6167 1.46041 53.2187 1.46041H52.3141V5.22537H53.2639Z" fill="#00112C"/>
<path d="M37.7414 14.8826C37.6811 14.8826 37.6268 14.8613 37.5786 14.8186C37.5364 14.7699 37.5153 14.7151 37.5153 14.6541V8.71428C37.5153 8.64726 37.5364 8.59243 37.5786 8.54979C37.6268 8.50714 37.6811 8.48582 37.7414 8.48582H41.9024C41.9687 8.48582 42.023 8.50714 42.0652 8.54979C42.1074 8.59243 42.1285 8.64726 42.1285 8.71428V9.63724C42.1285 9.69816 42.1074 9.75299 42.0652 9.80173C42.023 9.84437 41.9687 9.8657 41.9024 9.8657H39.1073V11.209H41.7214C41.7878 11.209 41.8421 11.2334 41.8843 11.2821C41.9265 11.3248 41.9476 11.3796 41.9476 11.4466V12.3604C41.9476 12.4214 41.9265 12.4762 41.8843 12.5249C41.8421 12.5676 41.7878 12.5889 41.7214 12.5889H39.1073V14.6541C39.1073 14.7212 39.0862 14.776 39.044 14.8186C39.0017 14.8613 38.9475 14.8826 38.8811 14.8826H37.7414Z" fill="#00112C"/>
<path d="M44.7261 14.8826C44.6658 14.8826 44.6115 14.8613 44.5632 14.8186C44.521 14.7699 44.4999 14.7151 44.4999 14.6541V9.92053H42.8898C42.8295 9.92053 42.7752 9.8992 42.727 9.85656C42.6848 9.80782 42.6637 9.75299 42.6637 9.69207V8.71428C42.6637 8.64726 42.6848 8.59243 42.727 8.54979C42.7752 8.50714 42.8295 8.48582 42.8898 8.48582H47.7563C47.8227 8.48582 47.8769 8.50714 47.9191 8.54979C47.9614 8.59243 47.9825 8.64726 47.9825 8.71428V9.69207C47.9825 9.75908 47.9614 9.81391 47.9191 9.85656C47.8769 9.8992 47.8227 9.92053 47.7563 9.92053H46.1462V14.6541C46.1462 14.7151 46.1251 14.7699 46.0829 14.8186C46.0407 14.8613 45.9864 14.8826 45.9201 14.8826H44.7261Z" fill="#00112C"/>
<path d="M49.0307 14.8826C48.9704 14.8826 48.9161 14.8613 48.8679 14.8186C48.8257 14.7699 48.8046 14.7151 48.8046 14.6541V8.71428C48.8046 8.64726 48.8257 8.59243 48.8679 8.54979C48.9161 8.50714 48.9704 8.48582 49.0307 8.48582H53.255C53.3213 8.48582 53.3756 8.50714 53.4178 8.54979C53.46 8.59243 53.4811 8.64726 53.4811 8.71428V9.57327C53.4811 9.63419 53.46 9.68902 53.4178 9.73776C53.3756 9.78041 53.3213 9.80173 53.255 9.80173H50.3694V11.0354H53.056C53.1223 11.0354 53.1766 11.0598 53.2188 11.1085C53.261 11.1511 53.2821 11.206 53.2821 11.273V12.068C53.2821 12.1289 53.261 12.1838 53.2188 12.2325C53.1766 12.2751 53.1223 12.2965 53.056 12.2965H50.3694V13.5667H53.3273C53.3937 13.5667 53.4479 13.588 53.4902 13.6307C53.5324 13.6733 53.5535 13.7281 53.5535 13.7951V14.6541C53.5535 14.7151 53.5324 14.7699 53.4902 14.8186C53.4479 14.8613 53.3937 14.8826 53.3273 14.8826H49.0307Z" fill="#00112C"/>
<path d="M54.8078 14.8826C54.7475 14.8826 54.6933 14.8613 54.645 14.8186C54.6028 14.7699 54.5817 14.7151 54.5817 14.6541V8.71428C54.5817 8.64726 54.6028 8.59243 54.645 8.54979C54.6933 8.50714 54.7475 8.48582 54.8078 8.48582H57.1597C58.0462 8.48582 58.7336 8.69905 59.2221 9.1255C59.7105 9.55195 59.9668 10.1703 59.991 10.9806C59.997 11.1572 60 11.3918 60 11.6842C60 11.9766 59.997 12.2081 59.991 12.3787C59.9608 13.2255 59.7105 13.8561 59.2402 14.2703C58.7758 14.6785 58.0974 14.8826 57.2049 14.8826H54.8078ZM57.1597 13.5667C57.5577 13.5667 57.8502 13.4723 58.0371 13.2834C58.2241 13.0885 58.3236 12.7808 58.3356 12.3604C58.3477 12.1838 58.3537 11.9553 58.3537 11.6751C58.3537 11.3948 58.3477 11.1694 58.3356 10.9988C58.3236 10.5907 58.215 10.2891 58.01 10.0942C57.811 9.8992 57.5125 9.80173 57.1145 9.80173H56.2099V13.5667H57.1597Z" fill="#00112C"/>
<path d="M28.0065 6.57954C27.1562 6.57954 26.4868 6.36936 25.9984 5.949C25.5099 5.52864 25.2506 4.91029 25.2204 4.09394C25.2144 3.91726 25.2114 3.6553 25.2114 3.30805C25.2114 2.9547 25.2144 2.68969 25.2204 2.51302C25.2506 1.70885 25.5129 1.0905 26.0074 0.657954C26.5079 0.219318 27.1743 0 28.0065 0C28.8387 0 29.505 0.219318 30.0055 0.657954C30.5061 1.0905 30.7684 1.70885 30.7925 2.51302C30.8046 2.86636 30.8106 3.13137 30.8106 3.30805C30.8106 3.47863 30.8046 3.74059 30.7925 4.09394C30.7624 4.91029 30.5031 5.52864 30.0146 5.949C29.5261 6.36936 28.8568 6.57954 28.0065 6.57954ZM28.0065 5.26363C28.3381 5.26363 28.6005 5.16311 28.7934 4.96207C28.9924 4.76103 29.098 4.45337 29.11 4.03911C29.1221 3.68576 29.1281 3.43598 29.1281 3.28977C29.1281 3.13137 29.1221 2.8816 29.11 2.54043C29.098 2.12617 28.9924 1.81851 28.7934 1.61747C28.5944 1.41643 28.3321 1.31591 28.0065 1.31591C27.6808 1.31591 27.4185 1.41643 27.2195 1.61747C27.0265 1.81851 26.921 2.12617 26.9029 2.54043C26.8969 2.71101 26.8939 2.96079 26.8939 3.28977C26.8939 3.61266 26.8969 3.86243 26.9029 4.03911C26.921 4.45337 27.0265 4.76103 27.2195 4.96207C27.4125 5.16311 27.6748 5.26363 28.0065 5.26363Z" fill="#00112C"/>
<path d="M21.715 15.0271C21.0034 15.0271 20.4395 14.8596 20.0234 14.5245C19.6073 14.1894 19.3993 13.7325 19.3993 13.1538C19.3993 12.7821 19.5048 12.4562 19.7159 12.176C19.927 11.8957 20.2285 11.6429 20.6204 11.4175C20.3913 11.1677 20.2255 10.9362 20.1229 10.723C20.0265 10.5037 19.9782 10.2813 19.9782 10.0559C19.9782 9.76348 20.0536 9.49542 20.2043 9.25173C20.3551 9.00805 20.5782 8.8131 20.8737 8.66689C21.1692 8.52067 21.525 8.44757 21.9411 8.44757C22.327 8.44757 22.6617 8.52067 22.9452 8.66689C23.2346 8.80701 23.4517 8.99891 23.5964 9.2426C23.7472 9.48019 23.8226 9.74215 23.8226 10.0285C23.8226 10.3818 23.717 10.6864 23.506 10.9423C23.2949 11.1921 22.9813 11.4388 22.5652 11.6825L23.6417 12.77C23.7382 12.6116 23.8196 12.4593 23.8859 12.313C23.9583 12.1607 24.0306 11.9627 24.103 11.7191C24.1271 11.6338 24.1904 11.5911 24.2929 11.5911H25.2065C25.2548 11.5911 25.297 11.6094 25.3332 11.646C25.3694 11.6764 25.3875 11.716 25.3875 11.7648C25.3814 11.978 25.2819 12.2674 25.089 12.6329C24.902 12.9984 24.694 13.3213 24.4648 13.6015L25.4779 14.6342C25.5201 14.689 25.5412 14.7347 25.5412 14.7712C25.5412 14.82 25.5231 14.8596 25.487 14.89C25.4568 14.9205 25.4176 14.9357 25.3694 14.9357H24.1392C24.0427 14.9357 23.9643 14.9053 23.904 14.8443L23.4969 14.4514C23.0326 14.8352 22.4386 15.0271 21.715 15.0271ZM21.7964 10.8418C22.0376 10.7199 22.2185 10.6012 22.3391 10.4854C22.4657 10.3696 22.5291 10.2326 22.5291 10.0742C22.5291 9.90969 22.4718 9.77871 22.3572 9.68123C22.2486 9.57767 22.1099 9.52588 21.9411 9.52588C21.7843 9.52588 21.6456 9.57767 21.525 9.68123C21.4104 9.7848 21.3531 9.91883 21.3531 10.0833C21.3531 10.193 21.3863 10.3087 21.4526 10.4306C21.525 10.5463 21.6396 10.6834 21.7964 10.8418ZM21.715 13.8666C22.0888 13.8666 22.3994 13.7538 22.6467 13.5284L21.4436 12.313C21.0456 12.5263 20.8466 12.7852 20.8466 13.0898C20.8466 13.3213 20.934 13.5102 21.1089 13.6564C21.2838 13.7965 21.4858 13.8666 21.715 13.8666Z" fill="#00112C"/>
<path d="M27.5914 14.8826C27.5311 14.8826 27.4769 14.8613 27.4286 14.8186C27.3864 14.7699 27.3653 14.7151 27.3653 14.6541V8.71427C27.3653 8.64726 27.3864 8.59243 27.4286 8.54978C27.4769 8.50714 27.5311 8.48581 27.5914 8.48581H28.7854C28.8518 8.48581 28.9061 8.50714 28.9483 8.54978C28.9905 8.59243 29.0116 8.64726 29.0116 8.71427V13.5027H31.7524C31.8187 13.5027 31.873 13.5271 31.9152 13.5758C31.9574 13.6185 31.9785 13.6733 31.9785 13.7403V14.6541C31.9785 14.7151 31.9574 14.7699 31.9152 14.8186C31.873 14.8613 31.8187 14.8826 31.7524 14.8826H27.5914Z" fill="#00112C"/>
<path fill-rule="evenodd" clip-rule="evenodd" d="M36.318 9.04835C36.4083 9.23238 36.3338 9.45551 36.1517 9.54674L33.7348 10.7571C33.5526 10.8484 33.3317 10.7731 33.2414 10.5891L33.1013 10.3035C33.011 10.1195 33.0854 9.89633 33.2676 9.8051L35.6845 8.59471C35.8667 8.50349 36.0875 8.57872 36.1778 8.76274L36.318 9.04835Z" fill="#00112C"/>
<path fill-rule="evenodd" clip-rule="evenodd" d="M36.318 10.6666C36.4083 10.8507 36.3338 11.0738 36.1517 11.165L33.7348 12.3754C33.5526 12.4667 33.3317 12.3914 33.2414 12.2074L33.1013 11.9218C33.011 11.7378 33.0854 11.5146 33.2676 11.4234L35.6845 10.213C35.8667 10.1218 36.0875 10.197 36.1778 10.381L36.318 10.6666Z" fill="#00112C"/>
<path fill-rule="evenodd" clip-rule="evenodd" d="M36.318 12.3137C36.4083 12.4977 36.3338 12.7208 36.1517 12.812L33.7348 14.0224C33.5526 14.1137 33.3317 14.0384 33.2414 13.8544L33.1013 13.5688C33.011 13.3848 33.0854 13.1616 33.2676 13.0704L35.6845 11.86C35.8667 11.7688 36.0875 11.844 36.1778 12.028L36.318 12.3137Z" fill="#00112C"/>
<path fill-rule="evenodd" clip-rule="evenodd" d="M34.0082 6.10053C33.966 6.14317 33.9449 6.198 33.9449 6.26501V8.89751C33.9449 8.93742 33.9868 8.96308 34.0218 8.94459L35.2745 8.2829C35.2919 8.27374 35.3027 8.25559 35.3027 8.23582V6.26501C35.3027 6.198 35.2786 6.14317 35.2304 6.10053C35.1882 6.05788 35.1339 6.03656 35.0676 6.03656H34.171C34.1107 6.03656 34.0564 6.05788 34.0082 6.10053ZM33.7871 15.0951C33.7871 15.3592 33.999 15.5733 34.2604 15.5733H34.3051C34.3342 15.5733 34.3577 15.5971 34.3577 15.6264V15.7592C34.3577 15.9206 34.4872 16.0514 34.647 16.0514C34.8067 16.0514 34.9362 15.9206 34.9362 15.7592V15.6248C34.9362 15.5964 34.959 15.5733 34.9872 15.5733C35.2486 15.5733 35.4605 15.3592 35.4605 15.0951V13.7698C35.4605 13.7311 35.4209 13.7054 35.3861 13.7214L33.8179 14.4434C33.7991 14.452 33.7871 14.4709 33.7871 14.4917L33.7871 15.0951Z" fill="#00112C"/>
</svg>
