<svg width="10" height="12" viewBox="0 0 10 12" fill="none" xmlns="http://www.w3.org/2000/svg">
<path d="M9.75 4.40302C8.87109 4.42255 8.05078 4.14911 7.34766 3.6413V7.13739C7.34766 9.5788 4.69141 11.1022 2.58203 9.8913C0.472656 8.66083 0.472656 5.61395 2.58203 4.38348C3.1875 4.03192 3.91016 3.8952 4.61328 3.99286V5.75067C3.53906 5.39911 2.50391 6.35614 2.73828 7.44989C2.99219 8.54364 4.32031 8.97333 5.16016 8.21161C5.45312 7.93817 5.62891 7.54755 5.62891 7.13739V0.301453H7.34766C7.34766 0.457703 7.34766 0.594421 7.38672 0.750671C7.50391 1.3952 7.875 1.96161 8.44141 2.31317C8.8125 2.56708 9.28125 2.7038 9.75 2.7038V4.40302Z" fill="#00112C" fill-opacity="0.25"/>
</svg>
