<svg width="328" height="150" viewBox="0 0 328 150" fill="none" xmlns="http://www.w3.org/2000/svg">
<path d="M40.8 16.2C40.8 18.32 40.44 20.2 39.72 21.84C39 23.44 37.98 24.82 36.66 25.98C35.34 27.1 33.76 27.96 31.92 28.56C30.08 29.12 28.04 29.4 25.8 29.4H15.6L15 30V44.4L14.4 45H4.8L4.2 44.4V3.6L4.8 3H25.8C28.04 3 30.08 3.3 31.92 3.9C33.76 4.46 35.34 5.32 36.66 6.48C37.98 7.6 39 8.98 39.72 10.62C40.44 12.26 40.8 14.12 40.8 16.2ZM30 16.2C30 14.4 29.6 13.26 28.8 12.78C28 12.26 27 12 25.8 12H15.6L15 12.6V19.8L15.6 20.4H25.8C27 20.4 28 20.16 28.8 19.68C29.6 19.16 30 18 30 16.2ZM43.2258 24C43.2258 20.56 43.7258 17.5 44.7258 14.82C45.7258 12.14 47.1458 9.88 48.9858 8.04C50.8258 6.2 53.0258 4.8 55.5858 3.84C58.1858 2.88 61.0658 2.4 64.2258 2.4C67.3858 2.4 70.2458 2.88 72.8058 3.84C75.4058 4.8 77.6258 6.2 79.4658 8.04C81.3058 9.88 82.7258 12.14 83.7258 14.82C84.7258 17.5 85.2258 20.56 85.2258 24C85.2258 27.44 84.7258 30.5 83.7258 33.18C82.7258 35.86 81.3058 38.12 79.4658 39.96C77.6258 41.8 75.4058 43.2 72.8058 44.16C70.2458 45.12 67.3858 45.6 64.2258 45.6C61.0658 45.6 58.1858 45.12 55.5858 44.16C53.0258 43.2 50.8258 41.8 48.9858 39.96C47.1458 38.12 45.7258 35.86 44.7258 33.18C43.7258 30.5 43.2258 27.44 43.2258 24ZM54.0258 24C54.0258 28.24 54.8858 31.4 56.6058 33.48C58.3658 35.56 60.9058 36.6 64.2258 36.6C67.5458 36.6 70.0658 35.56 71.7858 33.48C73.5458 31.4 74.4258 28.24 74.4258 24C74.4258 19.76 73.5458 16.6 71.7858 14.52C70.0658 12.44 67.5458 11.4 64.2258 11.4C60.9058 11.4 58.3658 12.44 56.6058 14.52C54.8858 16.6 54.0258 19.76 54.0258 24ZM115.212 33C115.212 32.24 115.052 31.64 114.732 31.2C114.452 30.72 114.032 30.34 113.472 30.06C112.912 29.74 112.212 29.5 111.372 29.34C110.572 29.14 109.652 28.96 108.612 28.8L104.412 28.2C101.252 27.76 98.6917 27.08 96.7317 26.16C94.7717 25.2 93.2517 24.1 92.1717 22.86C91.0917 21.62 90.3517 20.28 89.9517 18.84C89.5917 17.4 89.4117 15.92 89.4117 14.4C89.4117 12.76 89.7517 11.22 90.4317 9.78C91.1117 8.3 92.1717 7.02 93.6117 5.94C95.0517 4.86 96.8517 4 99.0117 3.36C101.212 2.72 103.812 2.4 106.812 2.4C112.212 2.4 116.452 3.46 119.532 5.58C122.652 7.66 124.212 10.8 124.212 15L123.612 15.6H114.012L113.412 15C113.412 13.8 112.912 12.8 111.912 12C110.912 11.2 109.212 10.8 106.812 10.8C102.012 10.8 99.6117 12 99.6117 14.4C99.6117 15.6 100.172 16.42 101.292 16.86C102.452 17.3 104.092 17.68 106.212 18L110.412 18.6C113.572 19.04 116.132 19.7 118.092 20.58C120.052 21.46 121.572 22.5 122.652 23.7C123.732 24.9 124.452 26.24 124.812 27.72C125.212 29.2 125.412 30.76 125.412 32.4C125.412 34.04 125.092 35.66 124.452 37.26C123.812 38.82 122.772 40.22 121.332 41.46C119.932 42.7 118.072 43.7 115.752 44.46C113.472 45.22 110.692 45.6 107.412 45.6C101.372 45.6 96.7517 44.44 93.5517 42.12C90.3917 39.76 88.8117 36.32 88.8117 31.8L89.4117 31.2H99.0117L99.6117 31.8C99.6117 33.6 100.232 34.96 101.472 35.88C102.712 36.76 104.692 37.2 107.412 37.2C109.812 37.2 111.712 36.88 113.112 36.24C114.512 35.6 115.212 34.52 115.212 33ZM164.421 12H152.421L151.821 12.6V44.4L151.221 45H141.621L141.021 44.4V12.6L140.421 12H128.421L127.821 11.4V3.6L128.421 3H164.421L165.021 3.6V11.4L164.421 12ZM24.6 80V94.4L24 95H14.4L13.8 94.4V80L1.8 61.4V53.6L2.4 53H7.8L9 53.6L18.6 69.8H19.8L29.4 53.6L30.6 53H36L36.6 53.6V61.4L24.6 80ZM39.007 74C39.007 70.56 39.507 67.5 40.507 64.82C41.507 62.14 42.927 59.88 44.767 58.04C46.607 56.2 48.807 54.8 51.367 53.84C53.967 52.88 56.847 52.4 60.007 52.4C63.167 52.4 66.027 52.88 68.587 53.84C71.187 54.8 73.407 56.2 75.247 58.04C77.087 59.88 78.507 62.14 79.507 64.82C80.507 67.5 81.007 70.56 81.007 74C81.007 77.44 80.507 80.5 79.507 83.18C78.507 85.86 77.087 88.12 75.247 89.96C73.407 91.8 71.187 93.2 68.587 94.16C66.027 95.12 63.167 95.6 60.007 95.6C56.847 95.6 53.967 95.12 51.367 94.16C48.807 93.2 46.607 91.8 44.767 89.96C42.927 88.12 41.507 85.86 40.507 83.18C39.507 80.5 39.007 77.44 39.007 74ZM49.807 74C49.807 78.24 50.667 81.4 52.387 83.48C54.147 85.56 56.687 86.6 60.007 86.6C63.327 86.6 65.847 85.56 67.567 83.48C69.327 81.4 70.207 78.24 70.207 74C70.207 69.76 69.327 66.6 67.567 64.52C65.847 62.44 63.327 61.4 60.007 61.4C56.687 61.4 54.147 62.44 52.387 64.52C50.667 66.6 49.807 69.76 49.807 74ZM122.393 78.8C122.393 84.24 120.813 88.4 117.653 91.28C114.533 94.16 110.113 95.6 104.393 95.6C98.673 95.6 94.233 94.16 91.073 91.28C87.953 88.4 86.393 84.24 86.393 78.8V53.6L86.993 53H96.593L97.193 53.6V78.8C97.193 81.8 97.793 83.86 98.993 84.98C100.193 86.06 101.993 86.6 104.393 86.6C106.793 86.6 108.593 86.06 109.793 84.98C110.993 83.86 111.593 81.8 111.593 78.8V53.6L112.193 53H121.793L122.393 53.6V78.8ZM166.777 66.2C166.777 67.84 166.557 69.32 166.117 70.64C165.717 71.92 165.157 73.04 164.437 74C163.717 74.96 162.877 75.8 161.917 76.52C160.997 77.2 160.017 77.76 158.977 78.2V78.8L165.577 86.6V94.4L164.977 95H160.177L158.977 94.4L146.977 80L145.777 79.4H141.577L140.977 80V94.4L140.377 95H130.777L130.177 94.4V53.6L130.777 53H151.777C154.017 53 156.057 53.3 157.897 53.9C159.737 54.46 161.317 55.32 162.637 56.48C163.957 57.6 164.977 58.98 165.697 60.62C166.417 62.26 166.777 64.12 166.777 66.2ZM155.977 66.2C155.977 64.4 155.577 63.26 154.777 62.78C153.977 62.26 152.977 62 151.777 62H141.577L140.977 62.6V69.8L141.577 70.4H151.777C152.977 70.4 153.977 70.16 154.777 69.68C155.577 69.16 155.977 68 155.977 66.2ZM40.2 133.6C40.2 135.72 39.86 137.5 39.18 138.94C38.5 140.38 37.58 141.56 36.42 142.48C35.3 143.36 34.02 144 32.58 144.4C31.14 144.8 29.68 145 28.2 145H4.8L4.2 144.4V103.6L4.8 103H27C28.48 103 29.94 103.2 31.38 103.6C32.82 104 34.1 104.64 35.22 105.52C36.38 106.36 37.3 107.46 37.98 108.82C38.66 110.18 39 111.84 39 113.8C39 115.92 38.52 117.8 37.56 119.44C36.64 121.08 35.12 122.2 33 122.8V123.4C35.4 124 37.2 125.18 38.4 126.94C39.6 128.66 40.2 130.88 40.2 133.6ZM28.2 115.6C28.2 115.16 28.14 114.72 28.02 114.28C27.94 113.84 27.74 113.46 27.42 113.14C27.14 112.78 26.72 112.5 26.16 112.3C25.6 112.1 24.88 112 24 112H15.6L15 112.6V118.6L15.6 119.2H24C24.88 119.2 25.6 119.1 26.16 118.9C26.72 118.7 27.14 118.44 27.42 118.12C27.74 117.76 27.94 117.36 28.02 116.92C28.14 116.48 28.2 116.04 28.2 115.6ZM29.4 131.8C29.4 130.28 29.02 129.2 28.26 128.56C27.54 127.92 26.12 127.6 24 127.6H15.6L15 128.2V135.4L15.6 136H24C26.12 136 27.54 135.68 28.26 135.04C29.02 134.4 29.4 133.32 29.4 131.8ZM81.6117 128.8C81.6117 134.24 80.0317 138.4 76.8717 141.28C73.7517 144.16 69.3317 145.6 63.6117 145.6C57.8917 145.6 53.4517 144.16 50.2917 141.28C47.1717 138.4 45.6117 134.24 45.6117 128.8V103.6L46.2117 103H55.8117L56.4117 103.6V128.8C56.4117 131.8 57.0117 133.86 58.2117 134.98C59.4117 136.06 61.2117 136.6 63.6117 136.6C66.0117 136.6 67.8117 136.06 69.0117 134.98C70.2117 133.86 70.8117 131.8 70.8117 128.8V103.6L71.4117 103H81.0117L81.6117 103.6V128.8ZM99.5953 145H89.9953L89.3953 144.4V103.6L89.9953 103H99.5953L100.195 103.6V144.4L99.5953 145ZM137.414 145H109.214L108.614 144.4V103.6L109.214 103H118.814L119.414 103.6V135.4L120.014 136H137.414L138.014 136.6V144.4L137.414 145ZM180.019 124C180.019 127.32 179.619 130.28 178.819 132.88C178.059 135.48 176.839 137.68 175.159 139.48C173.479 141.28 171.299 142.66 168.619 143.62C165.979 144.54 162.779 145 159.019 145H144.019L143.419 144.4V103.6L144.019 103H159.019C162.779 103 165.979 103.48 168.619 104.44C171.299 105.4 173.479 106.78 175.159 108.58C176.839 110.38 178.059 112.58 178.819 115.18C179.619 117.78 180.019 120.72 180.019 124ZM169.219 124C169.219 121.6 169.019 119.64 168.619 118.12C168.259 116.56 167.679 115.34 166.879 114.46C166.119 113.54 165.119 112.9 163.879 112.54C162.679 112.18 161.259 112 159.619 112H154.819L154.219 112.6V135.4L154.819 136H159.619C161.259 136 162.679 135.84 163.879 135.52C165.119 135.16 166.119 134.54 166.879 133.66C167.679 132.74 168.259 131.5 168.619 129.94C169.019 128.38 169.219 126.4 169.219 124Z" fill="white"/>
<path fill-rule="evenodd" clip-rule="evenodd" d="M102.51 109.126C102.51 114.052 106.462 118.045 111.337 118.045C116.212 118.045 120.164 114.052 120.164 109.126C120.164 104.2 116.212 100.206 111.337 100.206C106.462 100.206 102.51 104.2 102.51 109.126ZM108.744 113.65L108.547 115.311C108.52 115.535 108.324 115.702 108.107 115.649C107.235 115.433 106.589 114.723 106.224 114.147C106.081 113.92 106.22 113.637 106.479 113.579L108.236 113.185C108.519 113.121 108.779 113.359 108.744 113.65ZM113.414 115.375L112.593 114.307C112.431 114.098 112.123 114.089 111.959 114.296C111.687 114.641 111.325 115.133 110.976 115.688C110.833 115.915 110.946 116.213 111.212 116.242C111.897 116.32 112.67 116.168 113.232 115.999C113.498 115.919 113.585 115.596 113.414 115.375ZM115.494 112.576L115.694 114.194C115.724 114.439 115.958 114.6 116.159 114.46C116.679 114.098 117.164 113.316 117.486 112.673C117.62 112.404 117.419 112.099 117.121 112.099H115.911C115.658 112.099 115.463 112.323 115.494 112.576ZM116.669 109.121L118.001 110.183C118.158 110.309 118.389 110.302 118.463 110.113C118.682 109.55 118.532 108.526 118.341 107.736C118.269 107.438 117.912 107.338 117.684 107.542L116.651 108.47C116.455 108.646 116.464 108.958 116.669 109.121ZM114.919 103.232L114.666 104.76C114.627 104.999 114.793 105.214 115.031 105.192C115.4 105.157 115.946 105.054 116.63 104.811C116.844 104.735 116.951 104.493 116.835 104.296C116.514 103.752 115.966 103.278 115.512 102.959C115.276 102.794 114.966 102.945 114.919 103.232ZM111.913 102.272L111.136 103.661C110.985 103.931 110.597 103.96 110.393 103.727C110.136 103.434 109.773 103.045 109.302 102.587C109.108 102.399 109.131 102.076 109.377 101.965C110.147 101.619 111.027 101.612 111.65 101.695C111.921 101.731 112.047 102.031 111.913 102.272ZM107.2 104.207L107.651 105.507C107.717 105.698 107.636 105.899 107.442 105.947C107.092 106.034 106.469 106.125 105.489 106.148C105.243 106.153 105.05 105.937 105.14 105.706C105.4 105.041 106.063 104.412 106.599 104.007C106.814 103.845 107.112 103.951 107.2 104.207ZM104.841 108.708L106.252 109.55C106.449 109.668 106.512 109.922 106.37 110.105C106.13 110.412 105.727 110.865 105.132 111.402C104.961 111.556 104.698 111.536 104.594 111.331C104.271 110.69 104.213 109.741 104.243 109.019C104.255 108.716 104.582 108.553 104.841 108.708ZM111.547 113.373C109.226 113.373 107.344 111.472 107.344 109.126C107.344 106.78 109.226 104.878 111.547 104.878C113.868 104.878 115.75 106.78 115.75 109.126C115.75 111.472 113.868 113.373 111.547 113.373Z" fill="white" style="mix-blend-mode:color-dodge"/>
<path d="M80.5464 76.9518C80.4157 78.9573 80.3377 81.072 80.3377 82.2611V85.2343V87.0394H82.124V87.0394C82.7567 87.0394 83.2153 86.4343 83.0747 85.8175C82.9632 85.3285 82.8616 84.8116 82.8147 84.3972C82.7746 84.0423 82.7086 83.6841 82.6084 83.3414C82.5875 83.2702 82.5662 83.1934 82.5444 83.1106C82.3624 82.4209 82.2395 80.935 82.2695 79.3941C82.303 77.6765 82.5265 75.8906 83.0698 75.0628C81.3885 74.3162 80.8037 74.5245 80.7215 74.7219C80.6561 75.4081 80.5973 76.1717 80.5464 76.9518Z" fill="white" style="mix-blend-mode:color-dodge"/>
<path d="M152.319 49.4497L138.973 62.2982C138.129 63.1114 137.265 63.8926 136.346 64.5031C135.585 65.0088 134.786 65.3974 133.929 65.5897C132.038 66.0142 100.829 67.2887 96.9407 67.7136C93.9985 68.2448 91.6865 71.7487 91.1611 72.5979C90.6357 73.4472 90.4256 73.8722 92.1069 74.0845C95.8898 74.4031 125.523 73.2351 131.302 72.9165C137.082 72.5979 136.662 72.3856 138.133 71.0052C139.604 69.6247 154.21 55.1835 155.471 53.4845C156.48 52.1254 157.082 51.007 157.258 50.6177C157.666 49.7931 157.828 48.6486 157.877 47.7647C157.903 47.2983 158.149 46.4097 158.098 45.9455V45.9455C157.993 44.9897 158.308 44.4589 158.413 44.1403C158.519 43.8218 158.519 42.0166 158.098 40.3177C157.152 37.4506 154.42 37.0259 152.319 36.9198C150.637 36.8348 148.956 37.5121 148.326 37.8613C148.317 37.8613 148.31 37.8623 148.302 37.8644C147.988 37.951 148.116 38.4696 148.251 38.7664C148.796 39.9689 150.829 42.3933 151.373 42.76C152.003 43.1848 152.003 42.76 152.424 42.3353C152.844 41.9106 152.949 42.5477 152.949 43.5033C152.949 44.459 153.264 44.7776 153.475 45.2023C153.553 45.3605 153.558 45.5482 153.551 45.7544C153.522 46.523 153.7 47.3275 153.343 48.0083C153.036 48.5911 152.594 49.15 152.319 49.4497Z" fill="white" style="mix-blend-mode:color-dodge"/>
<path d="M165.664 42.3353C165.874 41.6981 166.4 41.4857 166.82 41.3795C167.24 41.2733 167.976 39.8929 169.972 39.7867C171.233 38.8311 171.654 38.5906 171.654 37.8613V36.2825V36.2674C171.654 35.9948 171.677 35.7228 171.702 35.4514C171.719 35.2734 171.735 35.0517 171.746 34.7959C169.568 34.7959 168.287 34.7592 166.82 34.7959C166.602 34.8013 165.867 34.8682 165.664 34.8741C165.557 34.8773 165.452 34.8805 165.349 34.8837C164.304 34.9167 163.468 34.9554 162.827 34.9937C162.087 35.0378 161.604 35.0813 161.356 35.1144C160.2 35.433 159.674 35.2206 159.99 37.4505C160.242 39.2344 160.798 44.2818 161.044 46.5825C161.393 46.2254 161.745 45.8692 162.091 45.5234C162.583 45.0322 163.062 44.5621 163.505 44.1403C164.514 43.1794 165.331 42.4698 165.664 42.3353Z" fill="white" style="mix-blend-mode:color-dodge"/>
<path d="M172.074 28.4247C171.128 28.3893 169.006 28.3398 168.081 28.4247C167.582 28.4706 166.966 28.5164 166.427 28.7412C164.844 29.4014 164.209 31.4878 163.015 32.7195C162.36 33.3949 161.732 34.2122 161.356 35.1144C161.604 35.0813 162.087 35.0378 162.827 34.9937C162.95 34.7913 163.141 34.4982 163.379 34.1596C164.049 33.2081 165.349 33.7203 165.349 34.8837V34.8837C165.452 34.8805 165.557 34.8773 165.664 34.8741C165.867 34.8682 166.602 34.8013 166.82 34.7959V30.9732C166.82 30.4423 166.295 30.0175 167.345 29.8052C168.186 29.6353 170.797 29.5928 171.997 29.5928C172.026 29.1521 172.052 28.7498 172.074 28.4247Z" fill="white" style="mix-blend-mode:color-dodge"/>
<path d="M171.654 37.8613C171.654 38.5906 171.233 38.8311 169.972 39.7867C169.72 39.9769 169.517 40.7154 169.447 41.0609L171.654 40.9547C171.759 40.9547 171.99 41.0184 172.074 41.2733C172.109 41.3443 172.183 41.3975 172.284 41.4369C172.791 41.633 174.001 41.4857 174.701 41.4857C174.981 41.4857 175.186 41.4245 175.332 41.3402V41.3402C175.592 41.19 175.858 40.9455 176.158 40.9323L178.064 40.8485C178.029 40.5654 177.875 39.9566 177.538 39.7867C177.258 39.6452 176.744 39.2675 176.371 38.9371C176.184 38.772 176.032 38.6186 175.962 38.5125C175.752 38.1939 175.752 38.0878 175.752 36.9198C175.752 36.6259 175.71 36.4084 175.647 36.2493C175.599 36.129 175.538 36.0421 175.473 35.981L175.385 34.7959L174.998 29.5928L174.911 28.4247H172.074C172.052 28.7498 172.026 29.1521 171.997 29.5928C171.89 31.2633 171.759 33.4866 171.759 34.1588C171.759 34.388 171.754 34.6017 171.746 34.7959C171.735 35.0517 171.719 35.2734 171.702 35.4514C171.677 35.7228 171.654 35.9948 171.654 36.2674V36.2825V37.8613Z" fill="white" style="mix-blend-mode:color-dodge"/>
<path d="M196.663 35.6455C197 35.4756 199.045 35.5039 200.026 35.5393V34.5835V34.2649C200.026 33.5178 199.712 31.1371 199.461 29.3804C199.398 28.94 199.339 28.5388 199.29 28.2124H196.453C196.447 28.5473 196.439 28.9468 196.432 29.3804C196.395 31.3757 196.348 34.095 196.348 34.5835C196.348 35.1781 196.418 35.6652 196.453 35.8345C196.502 35.7563 196.569 35.6929 196.663 35.6455Z" fill="white" style="mix-blend-mode:color-dodge"/>
<path d="M220.937 35.433H223.564C223.634 35.3268 223.753 35.0082 223.669 34.5835C223.661 34.5437 223.649 34.4713 223.631 34.3711C223.497 33.5812 223.099 31.0629 222.801 29.168C222.734 28.7373 222.671 28.3387 222.618 28H219.886V29.168V34.3711V34.9021C219.886 35.3268 220.32 35.4461 220.537 35.4526C220.638 35.433 220.771 35.433 220.937 35.433Z" fill="white" style="mix-blend-mode:color-dodge"/>
<path d="M244.16 35.5392C244.464 35.4625 246.159 35.4377 247.208 35.4336C247.313 35.398 247.502 35.1357 247.418 34.3711C247.414 34.3388 247.41 34.3034 247.405 34.2649C247.281 33.2519 246.764 30.1966 246.525 29.168C246.506 29.0824 246.488 29.0109 246.472 28.9557C246.262 28.2124 246.157 28 245.736 28H242.689C242.829 28 243.151 28.1911 243.32 28.9557C243.332 29.0143 243.343 29.0856 243.353 29.168C243.473 30.253 243.289 33.2545 243.298 34.2649C243.299 34.4297 243.306 34.5416 243.32 34.5835C243.425 34.9021 243.214 35.5392 244.16 35.5392Z" fill="white" style="mix-blend-mode:color-dodge"/>
<path d="M248.038 38.0876C248.357 38.3708 249.099 39.0008 249.519 39.2557C250.045 39.5742 249.94 39.6804 250.045 40.1052C250.129 40.4449 250.15 40.6007 250.15 40.6361H253.954V40.6361C253.94 40.5655 253.933 40.4936 253.934 40.4217L253.954 38.935C253.538 38.6829 253.05 38.4713 252.46 38.312C251.679 38.1009 250.72 37.9817 249.519 37.9817L248.029 37.874C248.032 37.9473 248.036 38.0187 248.038 38.0876Z" fill="white" style="mix-blend-mode:color-dodge"/>
<path d="M267.025 64.3155C268.098 66.9096 269.281 69.8228 270.587 73.0988C270.617 73.1754 270.578 73.2654 270.503 73.3004V73.3004C270.385 73.3553 270.385 73.5201 270.497 73.5859C270.708 73.7102 270.949 73.8655 271.061 73.9784C271.255 74.1747 271.989 77.9118 272.015 80.9083C272.019 81.3833 271.927 81.8498 271.988 82.3209C271.994 82.367 272 82.4176 272.007 82.4732C272.069 82.9781 272.169 84.1955 272.107 85.234C272.669 83.5704 273.856 79.8398 274.109 78.2258C274.373 76.534 274.489 74.8422 274.52 73.4008C274.532 72.869 274.636 72.3386 274.649 71.8068C274.649 71.7895 274.65 71.7723 274.65 71.7549C274.662 70.7771 274.662 69.7413 274.489 68.7788C274.469 68.6645 274.447 68.5555 274.426 68.4567C274.385 68.2651 274.345 68.1118 274.319 68.032C274.274 67.8977 274.286 67.688 274.275 67.3948C274.263 67.0737 274.224 66.6524 274.054 66.1206V66.1206C273.963 65.8348 273.885 65.544 273.85 65.246C273.843 65.1829 273.836 65.1205 273.828 65.0588C273.771 64.5865 273.706 64.1522 273.636 63.7533C273.147 60.9747 272.409 59.9074 272.322 59.6433C272.217 59.3247 271.271 57.5196 270.851 56.7763C270.695 56.4997 270.596 56.3113 270.486 56.1728C270.076 55.6588 269.44 55.2746 268.856 54.9726V54.9726C268.764 54.9251 268.594 54.8518 268.493 54.8284C266.792 54.4341 263.983 54.334 262.758 54.334C263.098 55.0965 263.456 55.9093 263.834 56.7763C264.383 58.0379 264.972 59.4143 265.606 60.9175C266.003 61.858 266.417 62.8481 266.849 63.8907C266.908 64.0313 266.966 64.1729 267.025 64.3155Z" fill="white" style="mix-blend-mode:color-dodge"/>
<path d="M252.354 109.657C252.339 109.975 253.933 109.976 254.038 109.657C254.143 109.338 253.618 103.286 253.618 102.33C253.618 102.145 253.641 101.967 253.681 101.799M252.354 109.657C252.368 109.338 252.357 109.444 252.357 109.338C252.357 106.94 251.986 104.63 251.298 102.463C248.423 93.3928 240.01 86.8268 230.079 86.8268M252.354 109.657C252.012 116.984 250.085 119.769 248.153 123.248C245.174 128.616 240.887 131 230.71 131C224.712 131 218.836 130.681 214.632 125.559C210.422 121.464 207.802 115.71 207.802 109.338M77.2903 87.0394V87.0394C76.6519 87.0394 76.1344 87.557 76.1344 88.1954V92.3165C76.1344 92.8133 76.3304 93.2901 76.6799 93.6432V93.6432C77.0673 94.0347 77.2578 94.5759 77.2463 95.1266C77.239 95.4836 77.2468 95.8454 77.2903 96.0652C77.3611 96.423 78.7795 98.6149 79.8111 100.164C80.1388 100.657 80.6921 100.95 81.2834 100.95V100.95L89.4251 101.334C89.9366 101.358 90.4023 101.048 90.6 100.576V100.576M77.2903 87.0394C77.2203 87.0394 77.0591 86.8058 76.975 85.8714C76.9626 85.7331 76.9634 85.4505 76.975 85.0551M77.2903 87.0394H80.3377M80.3377 87.0394V85.2343V82.2611C80.3377 81.072 80.4157 78.9573 80.5464 76.9518C80.5973 76.1717 80.6561 75.4081 80.7215 74.7219M80.3377 87.0394H82.124V87.0394C82.7567 87.0394 83.2153 86.4343 83.0747 85.8175C82.9632 85.3285 82.8616 84.8116 82.8147 84.3972C82.7746 84.0423 82.7086 83.6841 82.6084 83.3414C82.5875 83.2702 82.5662 83.1934 82.5444 83.1106C82.3624 82.4209 82.2395 80.935 82.2695 79.3941C82.303 77.6765 82.5265 75.8906 83.0698 75.0628M83.9104 73.3415C83.2099 72.9521 81.7037 72.7678 81.2834 72.5979C81.0723 72.5126 80.8782 73.0761 80.7215 74.7219M83.9104 73.3415C83.7365 73.3708 83.4329 73.599 83.3812 74.2549C83.3584 74.5432 83.2286 74.821 83.0698 75.0628V75.0628M83.9104 73.3415L84.3308 72.0673M76.975 85.0551C76.7649 85.044 76.3025 84.9582 76.1344 84.7033C75.9453 84.4168 75.8661 79.8347 76.518 77.2936C76.6483 76.7859 77.0457 76.0965 77.5223 76.3147V76.3147M76.975 85.0551C77.0245 83.3734 77.2695 79.6516 77.5223 76.3147M77.5223 76.3147C77.7123 73.808 77.9066 71.5186 78.0259 70.4745C78.3411 67.7136 81.2834 68.5631 81.2834 69.5188V69.8941C81.2834 70.4352 81.6181 70.9198 82.124 71.1116V71.1116L84.3308 72.0673M80.7215 74.7219C80.8037 74.5245 81.3885 74.3162 83.0698 75.0628M84.3308 72.0673V72.0673C84.5222 71.4871 84.6571 70.7267 84.7717 70.1266C84.818 69.8843 84.8797 69.6086 84.9613 69.3064C85.1296 68.683 85.8666 68.3621 86.8528 68.1499C87.7144 67.9645 88.7661 67.8622 89.7951 67.7136C92.0018 67.3951 99.8829 66.1209 109.445 65.1652C117.095 64.4007 132.318 62.9353 138.973 62.2982M138.973 62.2982L152.319 49.4497C152.594 49.15 153.036 48.5911 153.343 48.0083C153.7 47.3275 153.522 46.523 153.551 45.7544C153.558 45.5482 153.553 45.3605 153.475 45.2023C153.264 44.7776 152.949 44.459 152.949 43.5033C152.949 42.5477 152.844 41.9106 152.424 42.3353C152.003 42.76 152.003 43.1848 151.373 42.76C150.829 42.3933 148.796 39.9689 148.251 38.7664C148.116 38.4696 147.988 37.951 148.302 37.8644C148.31 37.8623 148.317 37.8613 148.326 37.8613M138.973 62.2982C138.129 63.1114 137.265 63.8926 136.346 64.5031C135.585 65.0088 134.786 65.3974 133.929 65.5897C132.038 66.0142 100.829 67.2887 96.9407 67.7136C93.9985 68.2448 91.6865 71.7487 91.1611 72.5979C90.6357 73.4472 90.4256 73.8722 92.1069 74.0845C95.8898 74.4031 125.523 73.2351 131.302 72.9165C137.082 72.5979 136.662 72.3856 138.133 71.0052C139.604 69.6247 154.21 55.1835 155.471 53.4845C156.48 52.1254 157.082 51.007 157.258 50.6177M151.583 42.3353V42.3353C151.445 41.7769 151.176 41.2596 150.803 40.8222C150.023 39.9092 149.01 38.6999 148.746 38.3002C148.546 37.9966 148.417 37.8617 148.326 37.8613M148.326 37.8613C148.956 37.5121 150.637 36.8348 152.319 36.9198C154.42 37.0259 157.152 37.4506 158.098 40.3177C158.519 42.0166 158.519 43.8218 158.413 44.1403C158.308 44.4589 157.993 44.9897 158.098 45.9455V45.9455C158.149 46.4097 157.903 47.2983 157.877 47.7647C157.828 48.6486 157.666 49.7931 157.258 50.6177M157.258 50.6177C157.914 49.8591 159.451 48.2117 161.044 46.5825M165.664 42.3353C165.874 41.6981 166.4 41.4857 166.82 41.3795M165.664 42.3353C166.722 42.2239 168.528 42.0425 169.932 41.9232M165.664 42.3353C165.331 42.4698 164.514 43.1794 163.505 44.1403C163.062 44.5621 162.583 45.0322 162.091 45.5234C161.745 45.8692 161.393 46.2254 161.044 46.5825M166.82 41.3795C167.24 41.2733 167.976 39.8929 169.972 39.7867M166.82 41.3795L169.447 41.0609M169.972 39.7867C171.233 38.8311 171.654 38.5906 171.654 37.8613V36.2825V36.2674C171.654 35.9948 171.677 35.7228 171.702 35.4514C171.719 35.2734 171.735 35.0517 171.746 34.7959M169.972 39.7867C169.72 39.9769 169.517 40.7154 169.447 41.0609M175.121 35.8579C175.216 35.842 175.352 35.8659 175.473 35.981M178.064 40.8485C178.029 40.5654 177.875 39.9566 177.538 39.7867C177.258 39.6452 176.744 39.2675 176.371 38.9371C176.184 38.772 176.032 38.6186 175.962 38.5125C175.752 38.1939 175.752 38.0878 175.752 36.9198C175.752 36.6259 175.71 36.4084 175.647 36.2493C175.599 36.129 175.538 36.0421 175.473 35.981M178.064 40.8485L176.158 40.9323C175.858 40.9455 175.592 41.19 175.332 41.3402V41.3402M178.064 40.8485L194.246 40.6362M169.447 41.0609L171.654 40.9547C171.759 40.9547 171.99 41.0184 172.074 41.2733C172.109 41.3443 172.183 41.3975 172.284 41.4369M172.284 41.4369C172.791 41.633 174.001 41.4857 174.701 41.4857C174.981 41.4857 175.186 41.4245 175.332 41.3402M172.284 41.4369L167.556 41.698M175.332 41.3402L196.393 41.0658C196.534 41.064 196.578 40.8623 196.501 40.7445V40.7445C196.453 40.6708 196.382 40.6362 196.294 40.6362H194.246M194.246 40.6362C194.316 40.353 194.457 39.7655 194.457 39.6805C194.457 39.5743 195.087 39.2558 195.612 38.6187C195.846 38.3356 196.017 38.1573 196.135 37.9814C196.283 37.7614 196.348 37.5451 196.348 37.1321C196.348 36.6489 196.304 36.2555 196.388 35.981C196.404 35.9276 196.426 35.8786 196.453 35.8345M200.026 35.5393C199.045 35.5039 197 35.4756 196.663 35.6455C196.569 35.6929 196.502 35.7563 196.453 35.8345M200.026 35.5393C200.111 35.5821 200.247 35.6976 200.341 35.8951C200.403 36.0239 200.446 36.1875 200.446 36.3887V36.3887C200.446 37.4152 200.744 38.4956 201.56 39.1188C201.575 39.1303 201.589 39.1406 201.602 39.1495C201.917 39.3619 202.443 39.362 202.653 40.6362M200.026 35.5393V34.5835M202.653 40.6362C202.168 40.6361 201.613 40.6361 201.149 40.6361C200.679 40.6362 200.285 41.167 199.816 41.167V41.167C200.954 41.167 213.51 41.1008 220.262 41.0645C220.433 41.0635 220.604 40.6876 220.537 40.5299V40.5299M202.653 40.6362L218.205 40.5299M220.537 40.5299C220.409 40.2249 220.307 39.7774 220.307 39.1495M220.537 40.5299H218.205M218.205 40.5299C218.31 40.2821 218.52 39.7441 218.52 39.5742C218.52 39.3619 219.046 39.2557 219.361 38.8309C219.651 38.4404 220.207 38.1397 220.295 37.6811M224.405 37.9814V39.1495M224.405 37.9814C224.573 38.224 224.935 38.6627 225.363 38.9968C225.739 39.2911 226.197 39.5159 226.354 39.9674C226.441 40.2167 226.489 40.4752 226.506 40.6361M224.405 37.9814V37.6811M226.506 40.6361H224.512C224.444 40.6361 224.381 40.6679 224.341 40.7219V40.7219C224.237 40.862 224.337 41.0608 224.512 41.0608H244.048C244.284 41.0608 244.436 40.7452 244.338 40.5299V40.5299M226.506 40.6361L242.059 40.5299M244.338 40.5299C244.209 40.2448 244.115 39.8778 244.16 39.468M244.338 40.5299H242.059M242.059 40.5299C242.129 40.2113 242.269 39.5318 242.269 39.3619C242.269 39.1696 243.328 38.5425 243.817 37.874M247.943 39.7866C247.978 39.5742 248.048 39.0221 248.048 38.5124C248.048 38.3908 248.044 38.246 248.038 38.0876M248.038 38.0876C248.357 38.3708 249.099 39.0008 249.519 39.2557C250.045 39.5742 249.94 39.6804 250.045 40.1052C250.129 40.4449 250.15 40.6007 250.15 40.6361M248.038 38.0876C248.036 38.0187 248.032 37.9473 248.029 37.874M250.15 40.6361H248.147C248.079 40.6361 248.015 40.669 247.975 40.7245V40.7245C247.874 40.865 247.974 41.0608 248.147 41.0608H253.605C253.829 41.0608 253.997 40.856 253.954 40.6361V40.6361M250.15 40.6361H253.954M253.954 38.935L253.934 40.4217C253.933 40.4936 253.94 40.5655 253.954 40.6361V40.6361M253.954 38.935C255.252 39.7225 255.837 40.9053 256.56 42.1229M253.954 38.935C254.823 38.2986 256.686 36.9196 257.19 36.4948C257.821 35.9639 257.716 34.9021 256.77 34.5835C256.013 34.3287 254.534 34.2649 253.888 34.2649M253.954 38.935C253.538 38.6829 253.05 38.4713 252.46 38.312M256.56 42.1229C256.56 42.1229 255.005 41.6979 254.668 41.6979V41.6979C254.186 41.6979 253.542 41.3787 253.06 41.3777C251.18 41.3741 249.335 41.371 247.523 41.3684M256.56 42.1229C257.395 43.5296 258.922 45.7281 262.758 54.334M169.932 41.9232C170.054 41.9129 170.173 41.903 170.288 41.8937M169.932 41.9232C170.044 41.9112 170.162 41.9018 170.288 41.8937M170.288 41.8937C170.371 41.8869 170.452 41.8805 170.53 41.8744M170.53 41.8744C170.555 41.8725 170.579 41.8706 170.603 41.8688M170.53 41.8744L170.603 41.8688M170.603 41.8688C171.122 41.829 171.536 41.8042 171.759 41.8042C172.6 41.8042 177.153 41.6626 179.325 41.5919C181.796 41.5567 186.232 41.5122 192.579 41.4715L193.09 41.4682C196.215 41.4486 199.788 41.43 203.802 41.4138C203.806 41.4138 203.81 41.4162 203.811 41.4199V41.4199M204.229 41.4121C215.36 41.3681 229.834 41.3432 247.523 41.3684M247.523 41.3684C247.594 41.3684 247.664 41.3693 247.733 41.371M253.681 101.799V101.799C253.907 100.825 254.984 100.232 255.976 100.104C259.419 99.6598 264.483 98.9916 266.8 98.6358C267.329 98.5548 267.863 98.5471 268.392 98.6248L269.695 98.8164M253.681 101.799C254.178 101.655 258.558 101.407 260.797 101.136C261.542 101.046 262.302 101.013 263.04 101.145C264.846 101.467 266.951 101.874 268.497 102.132C269.323 102.271 270.191 101.982 270.375 101.165C270.481 100.697 270.518 100.18 270.52 99.7275C270.521 99.259 270.159 98.8845 269.695 98.8164V98.8164M269.695 98.8164V98.8164C269.936 98.046 270.584 97.4796 271.37 97.2985C273.2 96.8771 274.989 96.246 275.159 95.2155C275.37 93.9412 276 90.7557 276 90.0124C276 89.2691 276 88.5258 274.634 88.3134C273.712 88.1701 272.052 88.0671 270.998 88.0171C270.711 88.0035 270.483 87.7671 270.483 87.4793V87.4793C270.483 87.1698 270.745 86.9293 271.054 86.917C271.193 86.9115 271.33 86.8993 271.459 86.8782C271.613 86.8529 271.756 86.7711 271.828 86.6321C271.991 86.3171 272.073 85.8024 272.107 85.234M133.296 111.568L148.948 108.948C150.149 108.747 151.732 109.338 152.949 109.338V109.338C154.631 109.338 154.42 109.232 155.471 108.595C156.522 107.958 156.837 107.639 157.258 107.214C157.678 106.79 158.519 106.153 159.149 106.153V106.153C160.429 106.153 161.106 107.958 162.385 107.958H163.983C165.031 107.958 165.685 107.948 166.091 107.917C166.821 107.861 167.647 106.968 167.894 106.279V106.279C168.116 105.661 168.47 105.712 169.115 105.843C170.677 106.162 172.952 106.576 174.758 106.895C175.904 107.097 177.073 106.707 177.874 105.861V105.861C178.532 105.166 179.447 104.772 180.404 104.772H190.003C190.517 104.772 191.028 104.851 191.518 105.007L207.817 110.188M133.296 111.568C133.324 111.277 133.347 110.985 133.364 110.691M133.296 111.568L133.364 110.691M207.817 110.188L207.806 108.913M207.817 110.188C207.807 109.906 207.802 109.623 207.802 109.338M207.872 107.533L207.806 108.913M207.872 107.533C208.782 95.9443 218.377 86.8268 230.079 86.8268M207.872 107.533C207.871 107.557 207.869 107.582 207.867 107.606M133.388 108.47L133.4 109.767M244.16 35.5392C244.464 35.4625 246.159 35.4377 247.208 35.4336M244.16 35.5392C243.214 35.5392 243.425 34.9021 243.32 34.5835C243.306 34.5416 243.299 34.4297 243.298 34.2649M244.16 35.5392C244.005 35.5784 243.936 35.6757 243.91 35.8577M247.208 35.4336V35.4336C247.417 35.4328 247.646 35.4449 247.783 35.6028C247.839 35.667 247.888 35.7508 247.917 35.8577M247.208 35.4336C247.313 35.398 247.502 35.1357 247.418 34.3711C247.414 34.3388 247.41 34.3034 247.405 34.2649M245.736 28C246.157 28 246.262 28.2124 246.472 28.9557C246.488 29.0109 246.506 29.0824 246.525 29.168M245.736 28H242.689M245.736 28H253.618C255.614 28 256.35 28.7433 255.824 29.5928C255.55 30.0368 254.662 30.807 253.836 31.4654C253.329 31.8686 253.442 32.7927 253.618 33.4155V33.4155C253.741 33.8504 253.834 34.1225 253.888 34.2649M242.689 28C242.829 28 243.151 28.1911 243.32 28.9557C243.332 29.0143 243.343 29.0856 243.353 29.168M242.689 28H222.618M223.564 35.433H220.937C220.771 35.433 220.638 35.433 220.537 35.4526M223.564 35.433H223.879C224.264 35.433 224.367 35.5468 224.395 35.8577M223.564 35.433C223.634 35.3268 223.753 35.0082 223.669 34.5835C223.661 34.5437 223.649 34.4713 223.631 34.3711M222.618 28H219.886M222.618 28C222.671 28.3387 222.734 28.7373 222.801 29.168M219.886 28L199.29 28.2124M219.886 28V29.168M220.537 35.4526C220.384 35.4827 220.307 35.5588 220.307 35.7515V35.8577M220.537 35.4526C220.32 35.4461 219.886 35.3268 219.886 34.9021V34.3711M199.29 28.2124H196.453M199.29 28.2124C199.339 28.5388 199.398 28.94 199.461 29.3804M196.453 28.2124L174.911 28.4247M196.453 28.2124C196.447 28.5473 196.439 28.9468 196.432 29.3804M196.453 35.8345C196.418 35.6652 196.348 35.1781 196.348 34.5835M196.348 34.5835C196.348 34.095 196.395 31.3757 196.432 29.3804M196.348 34.5835L175.385 34.7959M172.074 28.4247H174.911M172.074 28.4247C171.128 28.3893 169.006 28.3398 168.081 28.4247C167.582 28.4706 166.966 28.5164 166.427 28.7412C164.844 29.4014 164.209 31.4878 163.015 32.7195C162.36 33.3949 161.732 34.2122 161.356 35.1144M172.074 28.4247C172.052 28.7498 172.026 29.1521 171.997 29.5928M174.911 28.4247L174.998 29.5928M175.473 35.981L175.385 34.7959M161.356 35.1144C160.2 35.433 159.674 35.2206 159.99 37.4505C160.242 39.2344 160.798 44.2818 161.044 46.5825M161.356 35.1144C161.604 35.0813 162.087 35.0378 162.827 34.9937M171.746 34.7959C171.754 34.6017 171.759 34.388 171.759 34.1588C171.759 33.4866 171.89 31.2633 171.997 29.5928M171.746 34.7959C169.568 34.7959 168.287 34.7592 166.82 34.7959M171.997 29.5928C170.797 29.5928 168.186 29.6353 167.345 29.8052C166.295 30.0175 166.82 30.4423 166.82 30.9732V34.7959M166.82 34.7959C166.602 34.8013 165.867 34.8682 165.664 34.8741C165.557 34.8773 165.452 34.8805 165.349 34.8837M162.827 34.9937C162.95 34.7913 163.141 34.4982 163.379 34.1596C164.049 33.2081 165.349 33.7203 165.349 34.8837V34.8837M162.827 34.9937C163.468 34.9554 164.304 34.9167 165.349 34.8837M196.432 29.3804L174.998 29.5928M174.998 29.5928L175.385 34.7959M219.886 29.168L199.461 29.3804M219.886 29.168V34.3711M199.461 29.3804C199.712 31.1371 200.026 33.5178 200.026 34.2649V34.5835M243.353 29.168H222.801M243.353 29.168C243.473 30.253 243.289 33.2545 243.298 34.2649M222.801 29.168C223.099 31.0629 223.497 33.5812 223.631 34.3711M250.57 34.2649L250.825 34.0078C251.215 33.6135 251.852 33.7335 252.01 34.2649V34.2649M250.57 34.2649H248.889M250.57 34.2649H252.01M248.889 34.2649C250.57 32.8491 254.038 29.9113 254.458 29.4866C254.773 29.168 254.605 29.168 253.954 29.168H246.525M248.889 34.2649H247.405M246.525 29.168C246.764 30.1966 247.281 33.2519 247.405 34.2649M252.01 34.2649V34.2649C252.029 34.3276 252.087 34.3711 252.152 34.3711H253.818C253.871 34.3711 253.907 34.3144 253.888 34.2649V34.2649M252.46 38.312C251.679 38.1009 250.72 37.9817 249.519 37.9817L248.029 37.874M252.46 38.312C252.88 38.0224 253.484 37.605 254.044 37.2156C254.949 36.5858 254.991 35.8577 253.888 35.8577V35.8577H247.917M247.917 35.8577C247.933 35.9204 247.943 35.9909 247.943 36.0701C247.943 36.4556 247.999 37.2332 248.029 37.874M243.91 35.8577H233.442M243.91 35.8577C243.898 35.9439 243.896 36.0492 243.899 36.1763M224.395 35.8577C224.405 35.9715 224.405 36.1118 224.405 36.2825V37.6811M224.395 35.8577H231.866M223.631 34.3711L243.298 34.2649M220.307 35.8577V37.5567C220.307 37.5995 220.303 37.6409 220.295 37.6811M220.307 35.8577L219.867 35.8586C219.552 35.8591 219.26 36.0218 219.093 36.2891L218.758 36.826C218.519 37.2087 218.799 37.7038 219.25 37.6969V37.6969M200.026 34.5835L219.886 34.3711M220.295 37.6811L219.25 37.6969M224.405 37.6811L230.184 37.7386M243.817 37.874V37.874C243.914 37.7416 243.951 37.5771 243.948 37.4131C243.94 36.866 243.905 36.4648 243.899 36.1763M243.817 37.874L241.218 37.8482M219.25 37.6969L219.886 36.601M230.184 37.7386L231.866 35.8577M230.184 37.7386L231.55 37.7521M231.866 35.8577H233.442M233.442 35.8577L231.55 37.7521M231.55 37.7521L241.218 37.8482M241.218 37.8482L242.794 36.3887M243.899 36.1763L242.689 37.3443M262.758 54.334C263.098 55.0965 263.456 55.9093 263.834 56.7763C264.383 58.0379 264.972 59.4143 265.606 60.9175C266.003 61.858 266.417 62.8481 266.849 63.8907C266.908 64.0313 266.966 64.1729 267.025 64.3155C268.098 66.9096 269.281 69.8228 270.587 73.0988C270.617 73.1754 270.578 73.2654 270.503 73.3004V73.3004C270.385 73.3553 270.385 73.5201 270.497 73.5859C270.708 73.7102 270.949 73.8655 271.061 73.9784C271.255 74.1747 271.989 77.9118 272.015 80.9083C272.019 81.3833 271.927 81.8498 271.988 82.3209C271.994 82.367 272 82.4176 272.007 82.4732C272.069 82.9781 272.169 84.1955 272.107 85.234M262.758 54.334C263.983 54.334 266.792 54.4341 268.493 54.8284C268.594 54.8518 268.764 54.9251 268.856 54.9726V54.9726C269.44 55.2746 270.076 55.6588 270.486 56.1728C270.596 56.3113 270.695 56.4997 270.851 56.7763C271.271 57.5196 272.217 59.3247 272.322 59.6433C272.409 59.9074 273.147 60.9747 273.636 63.7533C273.706 64.1522 273.771 64.5865 273.828 65.0588C273.836 65.1205 273.843 65.1829 273.85 65.246C273.885 65.544 273.963 65.8348 274.054 66.1206V66.1206C274.224 66.6524 274.263 67.0737 274.275 67.3948C274.286 67.688 274.274 67.8977 274.319 68.032C274.345 68.1118 274.385 68.2651 274.426 68.4567C274.447 68.5555 274.469 68.6645 274.489 68.7788C274.662 69.7413 274.662 70.7771 274.65 71.7549C274.65 71.7723 274.649 71.7895 274.649 71.8068C274.636 72.3386 274.532 72.869 274.52 73.4008C274.489 74.8422 274.373 76.534 274.109 78.2258C273.856 79.8398 272.669 83.5704 272.107 85.234M207.802 109.338C207.802 109.196 207.803 109.055 207.806 108.913M207.802 109.338C207.802 108.755 207.824 108.178 207.867 107.606M230.079 86.8268C218.353 86.8268 208.742 95.9827 207.867 107.606M120.164 109.126C120.164 114.052 116.212 118.045 111.337 118.045C106.462 118.045 102.51 114.052 102.51 109.126C102.51 104.2 106.462 100.206 111.337 100.206C116.212 100.206 120.164 104.2 120.164 109.126ZM120.164 109.126C120.164 114.287 116.024 118.47 110.917 118.47C105.809 118.47 101.669 114.287 101.669 109.126C101.669 103.965 105.809 99.7814 110.917 99.7814C116.024 99.7814 120.164 103.965 120.164 109.126ZM111.127 107.226C112.072 107.332 112.808 108.142 112.808 109.126C112.808 110.181 111.961 111.037 110.917 111.037C110.881 111.037 110.846 111.036 110.811 111.034M111.127 107.226C111.058 107.218 110.988 107.214 110.917 107.214C109.872 107.214 109.025 108.07 109.025 109.126C109.025 110.146 109.816 110.979 110.811 111.034M111.127 107.226V107.639M111.127 107.639V107.639C111.24 107.639 111.33 107.735 111.323 107.849L111.148 110.404C111.136 110.581 110.989 110.719 110.811 110.719V110.719M111.127 107.639V107.639C110.948 107.639 110.798 107.775 110.779 107.953L110.528 110.405C110.511 110.573 110.643 110.719 110.811 110.719V110.719M110.811 110.719V111.034M207.806 108.913C207.814 108.474 207.834 108.039 207.867 107.606M133.4 109.767C133.403 109.624 133.404 109.481 133.404 109.338C133.404 96.9055 123.43 86.8268 111.127 86.8268C101.899 86.8268 93.9819 92.4961 90.6 100.576M133.4 109.767L133.404 110.183L133.364 110.691M133.4 109.767C133.394 110.076 133.382 110.385 133.364 110.691M133.364 110.691C133.022 116.522 130.484 121.756 126.574 125.559C122.37 130.681 116.494 131 110.496 131C100.319 131 96.032 128.616 93.0526 123.248C91.0791 119.693 88.8493 114.292 88.8493 109.338C88.8493 106.23 89.4727 103.269 90.6 100.576M108.547 115.311L108.744 113.65C108.779 113.359 108.519 113.121 108.236 113.185L106.479 113.579C106.22 113.637 106.081 113.92 106.224 114.147C106.589 114.723 107.235 115.433 108.107 115.649C108.324 115.702 108.52 115.535 108.547 115.311ZM112.593 114.307L113.414 115.375C113.585 115.596 113.498 115.919 113.232 115.999C112.67 116.168 111.897 116.32 111.212 116.242C110.946 116.213 110.833 115.915 110.976 115.688C111.325 115.133 111.687 114.641 111.959 114.296C112.123 114.089 112.431 114.098 112.593 114.307ZM115.694 114.194L115.494 112.576C115.463 112.323 115.658 112.099 115.911 112.099H117.121C117.419 112.099 117.62 112.404 117.486 112.673C117.164 113.316 116.679 114.098 116.159 114.46C115.958 114.6 115.724 114.439 115.694 114.194ZM118.001 110.183L116.669 109.121C116.464 108.958 116.455 108.646 116.651 108.47L117.684 107.542C117.912 107.338 118.269 107.438 118.341 107.736C118.532 108.526 118.682 109.55 118.463 110.113C118.389 110.302 118.158 110.309 118.001 110.183ZM114.666 104.76L114.919 103.232C114.966 102.945 115.276 102.794 115.512 102.959C115.966 103.278 116.514 103.752 116.835 104.296C116.951 104.493 116.844 104.735 116.63 104.811C115.946 105.054 115.4 105.157 115.031 105.192C114.793 105.214 114.627 104.999 114.666 104.76ZM111.136 103.661L111.913 102.272C112.047 102.031 111.921 101.731 111.65 101.695C111.027 101.612 110.147 101.619 109.377 101.965C109.131 102.076 109.108 102.399 109.302 102.587C109.773 103.045 110.136 103.434 110.393 103.727C110.597 103.96 110.985 103.931 111.136 103.661ZM107.651 105.507L107.2 104.207C107.112 103.951 106.814 103.845 106.599 104.007C106.063 104.412 105.4 105.041 105.14 105.706C105.05 105.937 105.243 106.153 105.489 106.148C106.469 106.125 107.092 106.034 107.442 105.947C107.636 105.899 107.717 105.698 107.651 105.507ZM106.252 109.55L104.841 108.708C104.582 108.553 104.255 108.716 104.243 109.019C104.213 109.741 104.271 110.69 104.594 111.331C104.698 111.536 104.961 111.556 105.132 111.402C105.727 110.865 106.13 110.412 106.37 110.105C106.512 109.922 106.449 109.668 106.252 109.55ZM99.988 109.338C99.988 115.085 104.599 119.744 110.286 119.744C115.973 119.744 120.584 115.085 120.584 109.338C120.584 103.591 115.973 98.932 110.286 98.932C104.599 98.932 99.988 103.591 99.988 109.338ZM99.3575 109.338C99.3575 115.32 104.156 120.169 110.076 120.169C115.995 120.169 120.794 115.32 120.794 109.338C120.794 103.356 115.995 98.5072 110.076 98.5072C104.156 98.5072 99.3575 103.356 99.3575 109.338ZM98.9372 109.338C98.9372 115.554 103.924 120.594 110.076 120.594C116.228 120.594 121.215 115.554 121.215 109.338C121.215 103.122 116.228 98.0825 110.076 98.0825C103.924 98.0825 98.9372 103.122 98.9372 109.338ZM108.184 109.126C108.184 110.651 109.408 111.887 110.917 111.887C112.425 111.887 113.649 110.651 113.649 109.126C113.649 107.601 112.425 106.365 110.917 106.365C109.408 106.365 108.184 107.601 108.184 109.126ZM107.344 109.126C107.344 111.472 109.226 113.373 111.547 113.373C113.868 113.373 115.75 111.472 115.75 109.126C115.75 106.78 113.868 104.878 111.547 104.878C109.226 104.878 107.344 106.78 107.344 109.126Z" stroke="white"/>
<path d="M221.042 109.125C221.042 114.051 224.994 118.045 229.869 118.045C234.744 118.045 238.696 114.051 238.696 109.125C238.696 104.199 234.744 100.206 229.869 100.206C224.994 100.206 221.042 104.199 221.042 109.125ZM221.042 109.125C221.042 114.286 225.182 118.47 230.289 118.47C235.396 118.47 239.536 114.286 239.536 109.125C239.536 103.965 235.396 99.781 230.289 99.781C225.182 99.781 221.042 103.965 221.042 109.125ZM230.079 107.226C229.133 107.331 228.398 108.142 228.398 109.125C228.398 110.181 229.245 111.037 230.289 111.037C230.324 111.037 230.36 111.036 230.394 111.034M230.079 107.226C230.148 107.218 230.218 107.214 230.289 107.214C231.334 107.214 232.181 108.07 232.181 109.125C232.181 110.145 231.39 110.979 230.394 111.034M230.079 107.226V107.639M230.079 107.639V107.639C229.965 107.639 229.875 107.735 229.883 107.848L230.058 110.404C230.07 110.581 230.217 110.718 230.394 110.718V110.718M230.079 107.639V107.639C230.258 107.639 230.408 107.774 230.426 107.952L230.677 110.405C230.695 110.572 230.563 110.718 230.394 110.718V110.718M230.394 110.718V111.034M232.659 115.311L232.462 113.649C232.427 113.359 232.687 113.121 232.97 113.184L234.726 113.579C234.986 113.637 235.125 113.92 234.982 114.146C234.617 114.722 233.97 115.433 233.098 115.648C232.882 115.702 232.685 115.534 232.659 115.311ZM228.613 114.307L227.791 115.374C227.621 115.596 227.707 115.918 227.974 115.998C228.536 116.167 229.309 116.319 229.994 116.242C230.259 116.212 230.373 115.915 230.23 115.687C229.88 115.132 229.519 114.641 229.247 114.296C229.083 114.088 228.774 114.097 228.613 114.307ZM225.512 114.194L225.712 112.576C225.743 112.322 225.547 112.099 225.295 112.099H224.085C223.786 112.099 223.585 112.403 223.72 112.673C224.042 113.316 224.527 114.098 225.047 114.46C225.248 114.6 225.481 114.438 225.512 114.194ZM223.205 110.183L224.536 109.121C224.742 108.957 224.751 108.646 224.555 108.47L223.521 107.541C223.294 107.337 222.937 107.438 222.865 107.736C222.674 108.525 222.523 109.55 222.743 110.112C222.817 110.301 223.047 110.309 223.205 110.183ZM226.539 104.76L226.287 103.231C226.24 102.945 225.93 102.793 225.694 102.959C225.24 103.277 224.692 103.752 224.371 104.295C224.255 104.492 224.362 104.734 224.576 104.811C225.259 105.054 225.806 105.157 226.174 105.191C226.412 105.213 226.579 104.998 226.539 104.76ZM230.07 103.661L229.293 102.271C229.158 102.031 229.284 101.73 229.555 101.694C230.178 101.612 231.059 101.619 231.828 101.965C232.074 102.075 232.098 102.398 231.904 102.587C231.432 103.045 231.07 103.433 230.813 103.726C230.609 103.959 230.221 103.931 230.07 103.661ZM233.555 105.507L234.005 104.206C234.094 103.951 234.392 103.844 234.607 104.006C235.143 104.412 235.805 105.041 236.066 105.705C236.156 105.937 235.963 106.153 235.717 106.147C234.736 106.125 234.113 106.033 233.764 105.946C233.57 105.898 233.489 105.697 233.555 105.507ZM234.954 109.549L236.365 108.707C236.623 108.553 236.95 108.715 236.963 109.019C236.992 109.741 236.935 110.689 236.611 111.33C236.508 111.536 236.244 111.555 236.074 111.402C235.479 110.864 235.075 110.412 234.836 110.104C234.694 109.922 234.756 109.668 234.954 109.549ZM241.218 109.338C241.218 115.085 236.607 119.744 230.92 119.744C225.232 119.744 220.622 115.085 220.622 109.338C220.622 103.591 225.232 98.9315 230.92 98.9315C236.607 98.9315 241.218 103.591 241.218 109.338ZM241.848 109.338C241.848 115.319 237.049 120.169 231.13 120.169C225.21 120.169 220.412 115.319 220.412 109.338C220.412 103.356 225.21 98.5068 231.13 98.5068C237.049 98.5068 241.848 103.356 241.848 109.338ZM242.269 109.338C242.269 115.554 237.282 120.593 231.13 120.593C224.978 120.593 219.991 115.554 219.991 109.338C219.991 103.121 224.978 98.082 231.13 98.082C237.282 98.082 242.269 103.121 242.269 109.338ZM233.021 109.125C233.021 110.65 231.798 111.886 230.289 111.886C228.78 111.886 227.557 110.65 227.557 109.125C227.557 107.601 228.78 106.365 230.289 106.365C231.798 106.365 233.021 107.601 233.021 109.125ZM233.862 109.125C233.862 111.471 231.98 113.373 229.659 113.373C227.337 113.373 225.455 111.471 225.455 109.125C225.455 106.78 227.337 104.878 229.659 104.878C231.98 104.878 233.862 106.78 233.862 109.125Z" stroke="#FFF500"/>
<path d="M312.333 33C312.333 34.4728 313.527 35.6667 315 35.6667C316.473 35.6667 317.667 34.4728 317.667 33C317.667 31.5272 316.473 30.3333 315 30.3333C313.527 30.3333 312.333 31.5272 312.333 33ZM266.5 48H276.25V47H266.5V48ZM290.75 33.5H315V32.5H290.75V33.5ZM284 40.25C284 36.5221 287.022 33.5 290.75 33.5V32.5C286.47 32.5 283 35.9698 283 40.25H284ZM276.25 48C280.53 48 284 44.5302 284 40.25H283C283 43.9779 279.978 47 276.25 47V48Z" fill="white"/>
<path d="M279.833 127.5C279.833 128.973 281.027 130.167 282.5 130.167C283.973 130.167 285.167 128.973 285.167 127.5C285.167 126.027 283.973 124.833 282.5 124.833C281.027 124.833 279.833 126.027 279.833 127.5ZM258 118.5H262.25V117.5H258V118.5ZM271.75 128H282.5V127H271.75V128ZM266.5 122.75C266.5 125.649 268.851 128 271.75 128V127C269.403 127 267.5 125.097 267.5 122.75H266.5ZM262.25 118.5C264.597 118.5 266.5 120.403 266.5 122.75H267.5C267.5 119.851 265.149 117.5 262.25 117.5V118.5Z" fill="white"/>
<path d="M300.833 94C300.833 95.4728 302.027 96.6667 303.5 96.6667C304.973 96.6667 306.167 95.4728 306.167 94C306.167 92.5272 304.973 91.3333 303.5 91.3333C302.027 91.3333 300.833 92.5272 300.833 94ZM275.282 105.446L274.947 105.075L275.282 105.446ZM275.616 105.818L286.053 96.4253L285.384 95.682L274.947 105.075L275.616 105.818ZM291.07 94.5H303.5V93.5H291.07V94.5ZM269.93 107H241.5V108H269.93V107ZM286.053 96.4253C287.43 95.1858 289.217 94.5 291.07 94.5V93.5C288.97 93.5 286.944 94.2773 285.384 95.682L286.053 96.4253ZM274.947 105.075C273.57 106.314 271.783 107 269.93 107V108C272.03 108 274.056 107.223 275.616 105.818L274.947 105.075Z" fill="#FFF500"/>
<path d="M123.667 33.5C123.667 34.9728 122.473 36.1667 121 36.1667C119.527 36.1667 118.333 34.9728 118.333 33.5C118.333 32.0272 119.527 30.8333 121 30.8333C122.473 30.8333 123.667 32.0272 123.667 33.5ZM138.867 35.998L139.23 35.6542L138.867 35.998ZM145.137 43.3439L138.504 36.3419L139.23 35.6542L145.863 42.6561L145.137 43.3439ZM133.059 34H121V33H133.059V34ZM138.504 36.3419C137.087 34.8469 135.118 34 133.059 34V33C135.393 33 137.624 33.9598 139.23 35.6542L138.504 36.3419Z" fill="white"/>
<path d="M62.6667 114.5C62.6667 113.027 61.4728 111.833 60 111.833C58.5272 111.833 57.3333 113.027 57.3333 114.5C57.3333 115.973 58.5272 117.167 60 117.167C61.4728 117.167 62.6667 115.973 62.6667 114.5ZM77.8666 112.002L78.2295 112.346L77.8666 112.002ZM84.137 104.656L77.5036 111.658L78.2295 112.346L84.863 105.344L84.137 104.656ZM72.0589 114H60V115H72.0589V114ZM77.5036 111.658C76.0872 113.153 74.1184 114 72.0589 114V115C74.393 115 76.6243 114.04 78.2295 112.346L77.5036 111.658Z" fill="white"/>
<rect x="301" y="101" width="27" height="3" rx="1" fill="#FFF500"/>
<rect x="301" y="107" width="17" height="3" rx="1" fill="#FFF500"/>
<rect x="288" y="123" width="27" height="3" rx="1" fill="white"/>
<rect x="288" y="129" width="5" height="3" rx="1" fill="white"/>
<rect x="295" y="129" width="5" height="3" rx="1" fill="white"/>
<rect x="302" y="129" width="5" height="3" rx="1" fill="white"/>
<rect width="27" height="3" rx="1" transform="matrix(-1 0 0 1 115 29)" fill="white"/>
<rect width="5" height="3" rx="1" transform="matrix(-1 0 0 1 115 35)" fill="white"/>
<rect width="5" height="3" rx="1" transform="matrix(-1 0 0 1 115 41)" fill="white"/>
<rect width="5" height="3" rx="1" transform="matrix(-1 0 0 1 108 35)" fill="white"/>
<rect width="5" height="3" rx="1" transform="matrix(-1 0 0 1 108 41)" fill="white"/>
<rect width="5" height="3" rx="1" transform="matrix(-1 0 0 1 54 115)" fill="white"/>
<rect width="23" height="3" rx="1" transform="matrix(-1 0 0 1 54 110)" fill="white"/>
<rect width="5" height="3" rx="1" transform="matrix(-1 0 0 1 101 35)" fill="white"/>
<rect width="5" height="3" rx="1" transform="matrix(-1 0 0 1 101 41)" fill="white"/>
</svg>
